<svg height="512" viewBox="0 0 58 59" width="512" xmlns="http://www.w3.org/2000/svg"><g id="011---Hover-School-Bus" fill="none"><path id="Shape" d="m52 16-12 2v-15l9 2v8c0 1.6568542 1.3431458 3 3 3z" fill="#b0d3f0"/><path id="Shape" d="m4 35h16v5c0 1.1045695-.8954305 2-2 2h-12c-1.1045695 0-2-.8954305-2-2z" fill="#7f8c8d"/><path id="Shape" d="m39 35h16v5c0 1.1045695-.8954305 2-2 2h-12c-1.1045695 0-2-.8954305-2-2z" fill="#7f8c8d"/><path id="Shape" d="m58 21v14c0 1.1045695-.8954305 2-2 2h-17v-21h14z" fill="#f3d55b"/><path id="Shape" d="m33 3v34h-30c-1.65685425 0-3-1.3431458-3-3v-29z" fill="#f3d55b"/><path id="Shape" d="m58 18v3h-3c-1.1045695 0-2-.8954305-2-2v-3h3c1.1045695 0 2 .8954305 2 2z" fill="#f9eab0"/><path id="Shape" d="m51 2v1c0 1.1045695-.8954305 2-2 2h-49v-2c0-1.65685425 1.34314575-3 3-3h46c1.1045695 0 2 .8954305 2 2z" fill="#f29c1f"/><path id="Shape" d="m10 14v4c0 .5522847-.44771525 1-1 1h-4c-.55228475 0-1-.4477153-1-1v-4z" fill="#33907c"/><path id="Shape" d="m10 10v4h-6v-4c0-.55228475.44771525-1 1-1h4c.55228475 0 1 .44771525 1 1z" fill="#14a085"/><path id="Shape" d="m20 14v4c0 .5522847-.4477153 1-1 1h-4c-.5522847 0-1-.4477153-1-1v-4z" fill="#33907c"/><path id="Shape" d="m20 10v4h-6v-4c0-.55228475.4477153-1 1-1h4c.5522847 0 1 .44771525 1 1z" fill="#14a085"/><path id="Shape" d="m30 14v5h-5c-.5522847 0-1-.4477153-1-1v-4z" fill="#33907c"/><path id="Shape" d="m30 9v5h-6v-4c0-.55228475.4477153-1 1-1z" fill="#14a085"/><path id="Rectangle-path" d="m30 5h12v32h-12z" fill="#f0c419"/><path id="Shape" d="m34 19c-.5522847 0-1-.4477153-1-1v-9c0-.55228475.4477153-1 1-1s1 .44771525 1 1v9c0 .5522847-.4477153 1-1 1z" fill="#33907c"/><path id="Shape" d="m38 19c-.5522847 0-1-.4477153-1-1v-9c0-.55228475.4477153-1 1-1s1 .44771525 1 1v9c0 .5522847-.4477153 1-1 1z" fill="#33907c"/><path id="Shape" d="m34 34c-.5522847 0-1-.4477153-1-1v-11c0-.5522847.4477153-1 1-1s1 .4477153 1 1v11c0 .5522847-.4477153 1-1 1z" fill="#33907c"/><path id="Shape" d="m38 34c-.5522847 0-1-.4477153-1-1v-11c0-.5522847.4477153-1 1-1s1 .4477153 1 1v11c0 .5522847-.4477153 1-1 1z" fill="#33907c"/><path id="Shape" d="m25 25h-20c-.55228475 0-1-.4477153-1-1s.44771525-1 1-1h20c.5522847 0 1 .4477153 1 1s-.4477153 1-1 1z" fill="#b19046"/><path id="Shape" d="m25 30h-20c-.55228475 0-1-.4477153-1-1s.44771525-1 1-1h20c.5522847 0 1 .4477153 1 1s-.4477153 1-1 1z" fill="#b19046"/><path id="Shape" d="m49 6.77v2.46l-7 5v-2.46z" fill="#547580"/><path id="Shape" d="m49 21h-3c-.5522847 0-1-.4477153-1-1s.4477153-1 1-1h3c.5522847 0 1 .4477153 1 1s-.4477153 1-1 1z" fill="#b19046"/><g fill="#fac176"><path id="Shape" d="m7 53c-.55228475 0-1-.4477153-1-1v-6c0-.5522847.44771525-1 1-1s1 .4477153 1 1v6c0 .5522847-.44771525 1-1 1z"/><path id="Shape" d="m7 57c-.55228475 0-1-.4477153-1-1v-1c0-.5522847.44771525-1 1-1s1 .4477153 1 1v1c0 .5522847-.44771525 1-1 1z"/><path id="Shape" d="m17 53c-.5522847 0-1-.4477153-1-1v-6c0-.5522847.4477153-1 1-1s1 .4477153 1 1v6c0 .5522847-.4477153 1-1 1z"/><path id="Shape" d="m17 57c-.5522847 0-1-.4477153-1-1v-1c0-.5522847.4477153-1 1-1s1 .4477153 1 1v1c0 .5522847-.4477153 1-1 1z"/><path id="Shape" d="m12 55c-.5522847 0-1-.4477153-1-1v-8c0-.5522847.4477153-1 1-1s1 .4477153 1 1v8c0 .5522847-.4477153 1-1 1z"/><path id="Shape" d="m12 59c-.5522847 0-1-.4477153-1-1v-1c0-.5522847.4477153-1 1-1s1 .4477153 1 1v1c0 .5522847-.4477153 1-1 1z"/><path id="Shape" d="m42 53c-.5522847 0-1-.4477153-1-1v-6c0-.5522847.4477153-1 1-1s1 .4477153 1 1v6c0 .5522847-.4477153 1-1 1z"/><path id="Shape" d="m42 57c-.5522847 0-1-.4477153-1-1v-1c0-.5522847.4477153-1 1-1s1 .4477153 1 1v1c0 .5522847-.4477153 1-1 1z"/><path id="Shape" d="m52 53c-.5522847 0-1-.4477153-1-1v-6c0-.5522847.4477153-1 1-1s1 .4477153 1 1v6c0 .5522847-.4477153 1-1 1z"/><path id="Shape" d="m52 57c-.5522847 0-1-.4477153-1-1v-1c0-.5522847.4477153-1 1-1s1 .4477153 1 1v1c0 .5522847-.4477153 1-1 1z"/><path id="Shape" d="m47 55c-.5522847 0-1-.4477153-1-1v-8c0-.5522847.4477153-1 1-1s1 .4477153 1 1v8c0 .5522847-.4477153 1-1 1z"/><path id="Shape" d="m47 59c-.5522847 0-1-.4477153-1-1v-1c0-.5522847.4477153-1 1-1s1 .4477153 1 1v1c0 .5522847-.4477153 1-1 1z"/></g></g></svg>